<svg xmlns="http://www.w3.org/2000/svg" width="1200" height="675" viewBox="0 0 1200 675" fill="none">
  <defs>
    <linearGradient id="g" x1="0" y1="0" x2="1" y2="1">
      <stop offset="0" stop-color="#5eead4"/><stop offset="0.55" stop-color="#818cf8"/><stop offset="1" stop-color="#f0abfc"/>
    </linearGradient>
  </defs>
  <rect width="1200" height="675" fill="#12141b"/>
  <rect x="1" y="1" width="1198" height="673" rx="16" fill="none" stroke="#21242f" stroke-width="2"/>
  <!-- fake browser chrome -->
  <rect x="40" y="40" width="1120" height="52" rx="10" fill="#0e1015"/>
  <circle cx="72" cy="66" r="7" fill="#ff5f57"/><circle cx="98" cy="66" r="7" fill="#febc2e"/><circle cx="124" cy="66" r="7" fill="#28c840"/>
  <rect x="170" y="54" width="620" height="24" rx="12" fill="#171a23"/>
  <!-- fake ui blocks -->
  <rect x="40" y="120" width="330" height="515" rx="12" fill="#0e1015"/>
  <rect x="70" y="150" width="180" height="18" rx="6" fill="#21242f"/>
  <rect x="70" y="186" width="270" height="12" rx="6" fill="#171a23"/>
  <rect x="70" y="210" width="240" height="12" rx="6" fill="#171a23"/>
  <rect x="70" y="260" width="270" height="80" rx="10" fill="#12141b" stroke="#21242f"/>
  <rect x="70" y="360" width="270" height="80" rx="10" fill="#12141b" stroke="#21242f"/>
  <rect x="410" y="120" width="750" height="515" rx="12" fill="#0e1015"/>
  <rect x="440" y="150" width="690" height="200" rx="10" fill="#12141b" stroke="#21242f"/>
  <rect x="440" y="370" width="330" height="240" rx="10" fill="#12141b" stroke="#21242f"/>
  <rect x="800" y="370" width="330" height="240" rx="10" fill="#12141b" stroke="#21242f"/>
  <!-- label -->
  <text x="600" y="330" font-family="monospace" font-size="34" font-weight="700" fill="url(#g)" text-anchor="middle">Clippy</text>
  <text x="600" y="372" font-family="monospace" font-size="17" fill="#656b78" text-anchor="middle">screenshot placeholder · replace with real UI</text>
</svg>
